<?xml version="1.0" encoding="utf-8"?>
<!-- Generator: Adobe Illustrator 26.5.2, SVG Export Plug-In . SVG Version: 6.00 Build 0)  -->
<svg version="1.1" id="Layer_1" xmlns="http://www.w3.org/2000/svg" xmlns:xlink="http://www.w3.org/1999/xlink" x="0px" y="0px"
	 viewBox="0 0 150 100" style="enable-background:new 0 0 150 100;" xml:space="preserve">
<style type="text/css">
	.st0{fill:#023048;}
	.st1{fill:#FBBE4B;}
	.st2{fill:#033049;}
	.st3{fill:#033149;}
	.st4{fill:#033048;}
	.st5{fill:#06334B;}
	.st6{fill:#033148;}
	.st7{fill:#04324A;}
	.st8{fill:#0D3B52;}
	.st9{fill:#EBB34D;}
	.st10{fill:#998C5E;}
	.st11{fill:#9DC3BB;}
</style>
<g>
	<path class="st0" d="M50.2,75.2c-0.3-0.4-0.4-0.9-0.6-1.4C44,60.6,38.5,47.4,33,34.3c-3.2-7.7-6.5-15.4-9.7-23.1
		c-0.1-0.2-0.2-0.3-0.1-0.5c0.2-0.1,0.4,0,0.5,0c6.1,0,12.2,0,18.3,0c0.6,0,0.5-0.1,0.8,0.5c3.7,9.4,7.4,18.8,11.2,28.1
		c1.7,4.2,3.3,8.4,5,12.6c0.1,0.1,0,0.3,0.2,0.3c0.2,0.2,0,0.4-0.1,0.7c-1.3,3.3-2.6,6.7-3.9,10c-1.5,3.9-3,7.8-4.5,11.7
		C50.5,74.8,50.5,75.1,50.2,75.2z"/>
	<path class="st0" d="M60.2,54.5c0.5,0.9,0.9,1.8,1.5,2.7c3.1,4.6,7.3,7.4,12.8,8.2c6.8,1,12.5-1.3,17.1-6.5
		c0.2-0.2,0.4-0.4,0.7-0.4c6.3,0,12.6,0,18.9,0c0.1,0,0.2,0,0.3,0c0.1,0.1,0,0.3,0,0.4c-1.9,5.6-5,10.4-9.3,14.4
		c-5.1,4.8-11.1,7.9-17.9,9.3c-2.3,0.5-4.6,0.7-6.9,0.7c-5.9,0-11.5-1.4-16.8-4.1C57.8,77.7,55.3,76,53,74c-0.1-0.1-0.3-0.2-0.4-0.3
		c-0.1-0.2,0-0.4,0.1-0.6c1.9-4.9,3.8-9.9,5.7-14.8c0.4-1.1,0.9-2.2,1.3-3.3C59.9,54.8,59.9,54.5,60.2,54.5z"/>
	<path class="st0" d="M107,26.4c0,0.2,0.2,0.3,0.3,0.5c1.1,1.6,2,3.3,2.8,5c0.1,0.2,0.2,0.3,0.2,0.6c-0.2,0.1-0.3,0-0.5,0
		c-6.9,0-13.8,0-20.6,0c-0.3,0-0.6-0.1-0.8-0.3c-2.6-1.9-5.4-3.1-8.6-3.6c-3.3-0.4-6.6,0-9.7,1.3c-0.1,0-0.2,0.1-0.3,0.1
		c-0.2-0.2,0-0.4,0.1-0.7c1-2.6,2-5.2,3-7.8c1.3-3.4,2.6-6.7,3.9-10.1c0.3-0.8,0.3-0.8,1.2-0.8c3.3,0.1,6.5,0.6,9.7,1.5
		c5,1.5,9.5,4,13.4,7.4c2.2,1.8,4,4,5.7,6.3C106.9,26,107,26.2,107,26.4z"/>
	<path class="st1" d="M107,26.4c-0.7-1-1.5-2-2.3-2.9C99.1,17.1,92.2,13,83.8,11.4c-2-0.4-4.1-0.6-6.2-0.6c-0.5,0-0.4-0.1-0.7,0.4
		c-2.4,6.1-4.8,12.3-7.2,18.4c-0.1,0.1-0.1,0.3-0.1,0.4c0,0,0,0,0,0c0,0-0.1,0.1-0.1,0.1c-0.4,0.8-0.7,1.7-1.1,2.6
		c-1.1,2.9-2.3,5.8-3.4,8.7c-0.1,0.2-0.1,0.3-0.1,0.5c-0.4,1.3-0.9,2.6-1.5,3.9c-0.4,0.7-0.6,1.4-0.9,2.1c-0.8,2-1.6,4-2.3,6
		c-0.1,0.2-0.2,0.4-0.1,0.6c-0.2,0.3-0.3,0.7-0.5,1.1c-2.4,6-4.7,12.1-7.1,18.1c-0.4,0.8-0.6,1.6-1,2.4c-0.2,0.4-0.3,0.8-0.5,1.3
		c-0.4-0.8-0.7-1.5-0.9-2.2c0.7-1.8,1.4-3.5,2.1-5.3c2.2-5.7,4.4-11.4,6.6-17.1c0.1-0.2,0.2-0.4,0.2-0.6c0-0.1,0-0.1,0-0.2
		c0.1,0,0.1-0.2,0.2-0.2c0.4-0.9,0.8-1.9,1.1-2.8c0.4-0.9,0.7-1.8,1-2.7c0.4-1.2,0.9-2.4,1.4-3.6c1.2-2.9,2.3-5.8,3.4-8.7
		c1.1-2.7,2.1-5.4,3.1-8.2c1.4-3.6,2.8-7.2,4.2-10.7c0.6-1.4,1.1-2.9,1.7-4.3c0.2-0.6,0.2-0.6,0.8-0.6c0.6,0,1.3,0,1.9,0
		c15.1,0,30.2,0,45.2,0c0.2,0,0.4,0,0.6,0c0,0.2,0,0.3-0.1,0.4c-0.9,1.9-1.8,3.8-2.7,5.7c-1.4,3-2.9,6.1-4.3,9.1
		c-0.4,0.9-0.4,0.9-1.4,0.9c-2.6,0-5.3,0-7.9,0C107.3,26.4,107.2,26.4,107,26.4z"/>
	<path class="st1" d="M108.7,42.5c0,0.1-0.1,0.3-0.2,0.4c-0.2,0-0.2,0.2-0.1,0.3c-0.1,0.2-0.2,0.5-0.3,0.6c-0.4,0-0.2,0.2-0.2,0.4
		c0,0.1,0,0.2-0.1,0.2c-0.2,0-0.3,0.2-0.3,0.3c-0.6,1.3-0.8,1.1-2.1,1c-0.5,0-1-0.1-1.5-0.1c-4.3-0.1-8.6,0.3-12.9,0.2
		c-0.2,0-0.3,0-0.5,0.1c-7.4,0-14.8,0-22.2,0c-0.2,0-0.4,0-0.5-0.1c0.2-0.2,0.4-0.1,0.6-0.1c4.5,0,9.1,0,13.6,0c2.5,0,5,0,7.5,0
		c-1.2,0-2.3,0-3.5,0c-5.9,0-11.8,0-17.7,0c-1.2,0-2.5,0-3.7,0c-0.3,0-0.6,0-0.7-0.3c-0.1-0.2,0-0.4,0.1-0.6
		c0.3-0.1,0.5-0.3,0.3-0.7c0-0.2,0.1-0.4,0.2-0.6c0.4-0.2,0.3-0.5,0.4-0.8c0-0.1,0.1-0.1,0.1-0.1c0.4-0.4,0.9-0.5,1.4-0.5
		c13.7,0,27.5,0,41.2,0C107.9,42.2,108.4,42.1,108.7,42.5z"/>
	<path class="st1" d="M108.7,42.5c-0.5-0.1-1-0.1-1.5-0.1c-13.7,0-27.4,0-41.1,0c-0.3,0-0.7-0.1-0.9,0.3c-0.1,0.1-0.3,0.1-0.4,0.2
		c-0.1-0.4,0.1-0.7,0.3-1c0.2,0,0.4,0,0.6,0c14.2,0,28.3,0,42.5,0c0.2,0,0.4,0,0.6,0C108.9,42.2,108.8,42.3,108.7,42.5z"/>
	<path class="st0" d="M57.6,91.1c0,1.4-1.3,2.6-2.8,2.7c-1.7,0.1-2.9-0.8-3.2-2.4c-0.2-0.9-0.2-1.7,0-2.6c0.7-2.5,3.1-2.7,4.5-2.1
		c0.8,0.3,1.3,1.1,1.4,1.9c-0.2,0.1-0.4,0-0.6,0.1c-0.2,0-0.3-0.1-0.4-0.3c-0.3-0.8-0.9-1.1-1.7-1.2c-0.9,0-1.6,0.3-2.1,1.1
		c-0.4,0.6-0.4,1.3-0.4,2c0,0.5,0.1,1,0.3,1.4c0.5,0.9,1.2,1.2,2.2,1.1c0.9-0.1,1.4-0.6,1.6-1.3C56.8,91,56.8,91,57.6,91.1
		C57.5,91.1,57.6,91.1,57.6,91.1z"/>
	<path class="st2" d="M27.2,92.5c0.2-0.7,0.5-1.4,0.7-2.1c0.4-1.2,0.8-2.3,1.1-3.5c0.1-0.3,0.2-0.4,0.6-0.4c0.2,0,0.4,0,0.5,0
		c0.1,0.2,0,0.3-0.1,0.4c-0.8,2.1-1.5,4.2-2.3,6.2c-0.1,0.1-0.1,0.3-0.3,0.4c-0.3,0-0.6,0.1-0.8,0c-0.1-0.1-0.1-0.2-0.2-0.4
		c-0.7-1.9-1.4-3.8-2.1-5.7c-0.1-0.3-0.2-0.5-0.3-0.8c0,0,0.1-0.1,0.1-0.1c0.9-0.1,0.9-0.1,1.2,0.8c0.5,1.6,1.1,3.1,1.6,4.7
		C27,92.3,27,92.4,27.2,92.5z"/>
	<path class="st1" d="M89.6,90.1c0-1,0-2.1,0-3.1c0-0.4,0-0.4,0.4-0.4c1.4,0,2.7,0,4.1,0c0.3,0,0.5,0.4,0.3,0.7
		c-0.1,0.1-0.3,0.1-0.4,0.1c-0.9,0-1.8,0-2.7,0c-0.2,0-0.3,0-0.5,0c-0.2,0-0.3,0.1-0.3,0.3c0,0.6,0,1.1,0,1.7c0,0.2,0.1,0.3,0.3,0.3
		c0.7,0,1.5,0,2.2,0c0.2,0,0.4,0,0.5,0c0.4,0,0.4,0,0.4,0.4c0,0.4,0,0.4-0.4,0.4c-0.8,0-1.6,0-2.4,0c-0.7,0-0.6-0.1-0.6,0.6
		c0,0.7,0,1.5,0,2.2c0,0.4,0,0.4-0.4,0.4c-0.1,0-0.1,0-0.2,0c-0.3,0-0.4-0.1-0.4-0.4c0-0.8,0-1.6,0-2.4
		C89.6,90.6,89.6,90.4,89.6,90.1z"/>
	<path class="st3" d="M109.4,89.1c0.4-0.4,0.8-0.7,1.3-0.7c0.9-0.1,1.8,0.2,1.9,1.5c0.1,1.2,0,2.4,0,3.5c0,0.2-0.1,0.3-0.2,0.3
		c-0.1,0-0.2,0-0.3,0c-0.2,0-0.4-0.1-0.3-0.3c0-0.6,0-1.2,0-1.8c0-0.5,0-1,0-1.4c0-0.4-0.2-0.8-0.6-0.9c-0.5-0.1-0.9-0.1-1.3,0.3
		c-0.4,0.3-0.5,0.7-0.5,1.2c0,0.8,0,1.6,0,2.4c0,0.1,0,0.3,0,0.4c0,0.2,0,0.3-0.2,0.3c-0.1,0-0.2,0-0.3,0c-0.2,0-0.4-0.1-0.3-0.3
		c0-1.5,0-3,0-4.5c0-0.2,0.1-0.3,0.3-0.3C109.3,88.5,109.3,88.5,109.4,89.1z"/>
	<path class="st3" d="M98.4,89.1c0.7-0.7,1.4-0.9,2.2-0.7c0.5,0.1,0.8,0.4,1,0.9c0.1,0.3,0.1,0.5,0.1,0.8c0,1,0,2.1,0,3.1
		c0,0.1,0.1,0.3-0.1,0.4c-0.2,0-0.5,0.1-0.7,0c-0.1-0.1-0.1-0.2-0.1-0.4c0-0.9,0-1.8,0-2.7c0-0.2,0-0.5-0.1-0.7
		c-0.1-0.4-0.4-0.6-0.9-0.7c-0.9,0-1.5,0.5-1.5,1.4c0,0.7,0,1.4,0,2.1c0,0.2,0,0.3,0,0.5c0,0.2,0.1,0.4-0.1,0.5
		c-0.2,0.1-0.4,0.1-0.6,0c-0.2,0-0.1-0.2-0.1-0.3c0-0.6,0-1.2,0-1.8c0-0.9,0-1.8,0-2.6c0-0.4,0-0.4,0.4-0.4c0.4,0,0.4,0,0.5,0.4
		C98.4,89,98.4,89,98.4,89.1z"/>
	<path class="st0" d="M41.2,93.1c-0.5,0.5-1,0.8-1.7,0.8c-1,0-1.6-0.6-1.6-1.5c0-1.2,0-2.3,0-3.5c0-0.2,0.1-0.3,0.3-0.3
		c0.1,0,0.1,0,0.2,0c0.4,0,0.4,0,0.4,0.4c0,1,0,1.9,0,2.9c0,0.2,0,0.5,0.1,0.7c0.1,0.3,0.4,0.5,0.7,0.6c0.9,0.1,1.4-0.4,1.5-1.3
		c0.1-0.6,0.1-1.2,0.1-1.9c0-0.3,0-0.7,0-1c0-0.4,0-0.4,0.4-0.4c0.4,0,0.4,0,0.4,0.4c0,0.6,0,1.2,0,1.8c0,0.9,0,1.7,0,2.6
		c0,0.1,0.1,0.3-0.1,0.3c-0.2,0.1-0.4,0.1-0.6,0C41.2,93.5,41.3,93.3,41.2,93.1z"/>
	<path class="st4" d="M75.7,93.1c-0.5,0.5-1,0.8-1.7,0.8c-0.9,0-1.5-0.5-1.6-1.4c-0.1-1.2,0-2.4,0-3.6c0-0.2,0.1-0.3,0.3-0.2
		c0.1,0,0.1,0,0.2,0c0.4,0,0.4,0,0.4,0.4c0,0.9,0,1.8,0,2.7c0,0.1,0,0.3,0,0.4c0,0.6,0.3,0.9,0.7,1c0.6,0.1,1.1-0.1,1.4-0.5
		c0.3-0.5,0.3-1.1,0.3-1.6c0-0.7,0-1.4,0-2c0-0.3,0-0.3,0.4-0.3c0.4,0,0.4,0,0.4,0.4c0,1.5,0,2.9,0,4.4c0,0.1,0.1,0.3-0.1,0.3
		c-0.2,0-0.4,0.1-0.6,0C75.7,93.5,75.8,93.3,75.7,93.1z"/>
	<path class="st3" d="M118,92c-0.3,1.5-1.5,2.2-2.9,1.8c-0.9-0.3-1.3-1-1.4-1.9c-0.1-0.6-0.1-1.3,0.2-1.9c0.5-1.4,1.9-1.9,3.2-1.3
		c0.7,0.3,0.9,0.9,1,1.6c-0.1,0.1-0.3,0.1-0.4,0.1c-0.3,0-0.4-0.1-0.5-0.4c-0.3-0.7-1.1-1-1.8-0.6c-0.2,0.1-0.4,0.3-0.5,0.5
		c-0.4,0.9-0.4,1.7-0.1,2.6c0.2,0.5,0.5,0.7,1.1,0.7c0.5,0,0.9-0.2,1.2-0.7c0.1-0.2,0.1-0.3,0.2-0.5c0,0,0.1,0,0.1,0
		C117.6,91.9,117.8,91.9,118,92z"/>
	<path class="st3" d="M69.9,91.1c0-0.5,0-1,0-1.5c0-0.3-0.1-0.4-0.3-0.3c-0.1,0-0.3,0.1-0.3-0.1c0-0.2,0-0.4,0-0.5
		c0-0.2,0.2-0.1,0.3-0.1c0.3,0,0.4-0.1,0.3-0.3c0-0.2,0-0.5,0-0.7c0-0.2,0.1-0.3,0.3-0.3c0.1,0,0.2,0,0.3,0c0.2,0,0.3,0.1,0.3,0.3
		c0,0.2,0,0.5,0,0.7c0,0.4,0,0.4,0.4,0.4c0,0,0,0,0.1,0c0.3,0,0.5,0.3,0.4,0.6c0,0.1-0.1,0.1-0.2,0.1c-0.1,0-0.2,0-0.4,0
		c-0.1,0-0.2,0.1-0.2,0.2c0,1,0,2,0,3.1c0,0.3,0.1,0.4,0.5,0.4c0.2,0,0.4,0.1,0.3,0.3c0,0.2,0,0.4-0.3,0.4c-0.2,0-0.3,0-0.5,0
		c-0.5,0-0.7-0.2-0.8-0.7c0-0.2-0.1-0.4-0.1-0.5C69.9,92,69.9,91.6,69.9,91.1z"/>
	<path class="st5" d="M35.8,90.1c0-1.1,0-2.1,0-3.2c0-0.1-0.1-0.3,0.1-0.3c0.2-0.1,0.5-0.1,0.7,0c0.1,0.1,0.1,0.3,0.1,0.4
		c0,1.4,0,2.9,0,4.3c0,0.6,0,1.3,0,1.9c0,0.3,0,0.3-0.4,0.3c-0.2,0-0.4,0-0.4-0.3C35.8,92.3,35.8,91.2,35.8,90.1z"/>
	<path class="st1" d="M90.4,45.9c0-0.1,0.1-0.2,0.2-0.2c0.1,0,0.3,0,0.4,0c1.6,0,3.3,0,4.9,0c0.7,0,1.5-0.1,2.2-0.2
		c0.1,0,0.3,0,0.4,0c1.9,0,3.9,0,5.8,0c0.3,0,0.5,0,0.8,0.1c0.4,0.2,0.8,0.1,1.2,0c0.1,0,0.2,0,0.2-0.1c0.1-0.4,0.6-0.5,0.6-0.9
		c0-0.3,0.2-0.4,0.5-0.3c-0.1,0.4-0.4,0.8-0.6,1.3c-0.1,0.2-0.2,0.2-0.4,0.2c-0.6,0-1.2,0-1.8,0c-4.6,0-9.3,0-13.9,0
		C90.9,45.9,90.7,45.9,90.4,45.9z"/>
	<path class="st1" d="M63.8,45.3c0.3,0.4,0.7,0.5,1.1,0.4c0.7,0,1.3,0,2,0c4.8-0.2,9.7-0.1,14.5-0.1c1.4,0,2.7,0,4.1,0
		c1.3,0,2.7,0,4,0c0.2,0,0.4-0.1,0.7,0.1c-0.2,0.1-0.4,0.1-0.5,0.1c-2.1,0-4.2,0-6.3,0c-5,0-9.9,0-14.9,0c-0.2,0-0.5,0-0.7,0
		c-1.4,0-2.8,0-4.2,0C63.5,45.6,63.7,45.4,63.8,45.3z"/>
	<path class="st6" d="M78.7,89.2c0.2-0.2,0.3-0.3,0.4-0.4c0.2-0.2,0.4-0.3,0.6-0.4c0.6-0.2,0.6-0.1,0.6,0.5c0,0.3-0.1,0.3-0.3,0.4
		c-0.9,0.1-1.3,0.6-1.3,1.5c0,0.8,0,1.7,0,2.5c0,0.3-0.1,0.4-0.4,0.3c-0.4,0-0.4,0-0.4-0.3c0-1.5,0-3,0-4.5c0-0.3,0.1-0.3,0.3-0.3
		c0.4,0,0.4,0,0.4,0.3C78.7,89,78.7,89.1,78.7,89.2z"/>
	<path class="st7" d="M95.4,91c0-0.7,0-1.4,0-2.1c0-0.4,0-0.4,0.4-0.4c0.5,0,0.5,0,0.5,0.5c0,1.4,0,2.8,0,4.2c0,0.1,0.1,0.3-0.1,0.4
		c-0.2,0.1-0.5,0.1-0.7,0c-0.1-0.1-0.1-0.2-0.1-0.3C95.4,92.5,95.4,91.8,95.4,91z"/>
	<path class="st8" d="M96.3,87.1c0,0.4,0,0.4-0.4,0.4c-0.4,0-0.4,0-0.4-0.5c0-0.4,0-0.4,0.5-0.4C96.3,86.6,96.3,86.6,96.3,87.1z"/>
	<path class="st9" d="M63.8,45.3c-0.1,0.2-0.2,0.3-0.2,0.6c0,0-0.1,0-0.1,0c0-0.1,0-0.2,0-0.3c0.4-1.2,0.9-2.3,1.3-3.4
		c0-0.1,0.1-0.2,0.2-0.2c0,0,0.1,0,0.1,0c-0.2,0.3-0.3,0.6-0.3,1c0,0,0,0,0,0c0,0.3-0.1,0.5-0.3,0.8c-0.1,0.2-0.2,0.3-0.2,0.5
		c0,0.2,0,0.5-0.2,0.6C63.9,45,63.8,45.1,63.8,45.3z"/>
	<path class="st1" d="M107.8,44.2c-0.3-0.1-0.3-0.4-0.1-0.5c0.2-0.2,0.3-0.1,0.3,0.1C108,43.9,108,44.1,107.8,44.2z"/>
	<path class="st1" d="M108.4,43.1c-0.1,0-0.3-0.1-0.2-0.2c0.1-0.1,0.2-0.2,0.3-0.1C108.5,43,108.5,43.1,108.4,43.1z"/>
	<path class="st10" d="M59.3,51.8c0,0.1,0,0.2-0.2,0.2C59.2,52,59.2,51.8,59.3,51.8z"/>
	<path class="st11" d="M69.6,30.1c0-0.1,0-0.1,0.1-0.1C69.7,30.1,69.7,30.1,69.6,30.1z"/>
	<path class="st1" d="M64,44.9c0-0.2,0.1-0.5,0.2-0.6c0.2,0.1,0.2,0.2,0.2,0.4C64.4,44.8,64.2,44.9,64,44.9z"/>
	<path class="st1" d="M64.5,43.7c0.1-0.3,0.1-0.5,0.3-0.8C65,43.4,65,43.4,64.5,43.7z"/>
	<path class="st3" d="M68.4,89.6c-0.3-0.8-0.9-1.2-1.7-1.3c-0.6,0-1.2,0.2-1.6,0.7c-0.2-0.2,0-0.4-0.2-0.5c-0.2-0.1-0.4-0.1-0.6,0
		c-0.2,0.1-0.1,0.3-0.1,0.4c0,2.1,0,4.1,0,6.2c0,0.5,0,0.5,0.5,0.5c0.3,0,0.3-0.1,0.3-0.3c0-0.6,0-1.2,0-1.8c0-0.1-0.1-0.3,0.1-0.4
		c0.3,0.3,0.7,0.6,1.1,0.6c0.9,0.1,1.7-0.3,2.1-1.1C68.8,91.7,68.8,90.7,68.4,89.6z M67.6,92.3c-0.2,0.6-0.7,0.9-1.4,0.8
		c-0.6,0-0.9-0.4-1.1-1c-0.1-0.3-0.1-0.6-0.1-1c0-0.4,0-0.9,0.2-1.3c0.2-0.5,0.6-0.8,1.2-0.8c0.6,0,1,0.3,1.2,0.8
		C67.9,90.7,67.9,91.5,67.6,92.3z"/>
	<path class="st2" d="M107.6,93.3c0-0.2,0-0.3-0.2-0.3c-0.3,0-0.3-0.2-0.3-0.4c0-0.9,0-1.9,0-2.8c0-0.5-0.2-1-0.7-1.2
		c-0.8-0.4-1.7-0.4-2.5,0c-0.6,0.3-0.8,0.8-0.8,1.4c0.1,0.1,0.2,0.1,0.3,0.1c0.3,0,0.5,0,0.6-0.4c0-0.2,0.2-0.4,0.5-0.5
		c0.5-0.2,1-0.2,1.4,0c0.3,0.1,0.5,0.5,0.4,0.8c0,0.3-0.2,0.4-0.6,0.5c-0.1,0-0.3,0-0.4,0c-0.5,0.1-0.9,0.1-1.4,0.2
		c-0.6,0.2-1,0.6-1.1,1.3c-0.1,0.9,0.5,1.7,1.5,1.7c0.7,0,1.4-0.3,1.9-0.7c0.1,0.1,0.1,0.2,0.2,0.3c0.2,0.4,0.7,0.6,1.1,0.4
		C107.7,93.7,107.6,93.5,107.6,93.3z M106.2,91.6c0,1-0.9,1.7-1.9,1.5c-0.3-0.1-0.6-0.4-0.6-0.7c0-0.3,0.2-0.7,0.5-0.8
		c0.2-0.1,0.4-0.2,0.7-0.2c0.4,0,0.9-0.1,1.4-0.3C106.2,91.3,106.2,91.4,106.2,91.6z"/>
	<path class="st4" d="M63.4,93.3c0-0.1,0-0.2-0.1-0.2c-0.5-0.1-0.5-0.1-0.5-0.6c0-0.9,0-1.8,0-2.7c0-0.5-0.2-0.9-0.7-1.1
		c-0.8-0.4-1.6-0.4-2.4,0c-0.6,0.3-0.9,0.8-0.8,1.4c0.1,0,0.2,0,0.2,0c0.4,0,0.4,0,0.6-0.4c0.1-0.2,0.2-0.3,0.4-0.4
		c0.5-0.2,1.1-0.2,1.6,0c0.3,0.1,0.4,0.5,0.3,0.8c-0.1,0.3-0.3,0.4-0.6,0.4c-0.1,0-0.2,0-0.4,0c-0.4,0.1-0.9,0.1-1.3,0.2
		c-0.9,0.3-1.3,0.9-1.1,1.8c0.1,0.7,0.7,1.2,1.5,1.2c0.6,0,1.1-0.2,1.5-0.5c0.1-0.1,0.2-0.2,0.3-0.2c0,0.1,0.1,0.2,0.1,0.3
		c0.2,0.4,0.7,0.6,1.1,0.4C63.4,93.7,63.4,93.5,63.4,93.3z M61.9,92c0,0.3-0.2,0.6-0.5,0.7c-0.4,0.2-0.8,0.4-1.2,0.3
		c-0.4,0-0.7-0.3-0.8-0.7c-0.1-0.4,0.1-0.7,0.6-0.9c0.1-0.1,0.3-0.1,0.5-0.1c0.5-0.1,1-0.1,1.4-0.3C61.9,91.4,61.9,91.7,61.9,92z"/>
	<path class="st4" d="M34.9,93.4c0-0.1,0-0.2-0.2-0.3c-0.4-0.1-0.4-0.1-0.4-0.5c0-0.9,0-1.8,0-2.7c0-0.6-0.3-1-0.8-1.2
		c-0.8-0.3-1.5-0.3-2.3,0c-0.6,0.3-0.9,0.8-0.9,1.4c0,0,0,0,0.1,0c0.2,0,0.4,0.1,0.6,0c0.2-0.1,0.1-0.3,0.2-0.4
		c0.1-0.1,0.1-0.2,0.2-0.3c0.4-0.3,1.3-0.3,1.7,0c0.3,0.2,0.3,0.5,0.3,0.8c-0.1,0.3-0.3,0.4-0.6,0.4c-0.1,0-0.3,0-0.4,0
		c-0.5,0.1-1,0.1-1.5,0.3c-0.7,0.3-1,0.8-0.9,1.6c0.1,0.6,0.5,1.1,1.1,1.3c0.3,0.1,0.6,0.1,1,0c0.5-0.1,0.9-0.4,1.3-0.7
		c0,0.1,0.1,0.2,0.1,0.3c0.2,0.5,0.6,0.6,1.1,0.5C35,93.7,34.9,93.5,34.9,93.4z M33.5,92c0,0.3-0.2,0.6-0.4,0.8
		c-0.4,0.3-0.8,0.4-1.3,0.3c-0.4,0-0.7-0.3-0.7-0.7c-0.1-0.4,0.1-0.7,0.5-0.9c0.1-0.1,0.3-0.1,0.5-0.1c0.5-0.1,1-0.1,1.5-0.3
		C33.5,91.4,33.5,91.7,33.5,92z"/>
	<path class="st4" d="M82.4,91.4c0.9,0,1.9,0,2.8,0c0.3,0,0.4,0,0.3-0.4c0-0.3,0-0.6-0.1-1c-0.1-0.7-0.6-1.2-1.2-1.5
		c-1.2-0.5-2.6,0-3.1,1.3c-0.3,0.8-0.4,1.6-0.1,2.4c0.6,1.8,2.5,1.9,3.6,1.1c0.4-0.3,0.7-0.7,0.8-1.3c-0.4-0.1-0.8-0.1-1,0.4
		c-0.3,0.6-0.9,0.6-1.5,0.6c-0.5-0.1-0.8-0.4-1-0.8c-0.1-0.3-0.2-0.5-0.1-0.8C82,91.3,82.2,91.4,82.4,91.4z M83.2,89.1
		c0.9,0,1.4,0.5,1.4,1.5c-0.1,0-0.1,0-0.2,0c-0.8,0-1.7,0-2.5,0C81.8,89.8,82.4,89.1,83.2,89.1z"/>
	<path class="st4" d="M44.4,91.4c0.9,0,1.7,0,2.6,0c1,0,1,0,0.8-1c0-0.1,0-0.1,0-0.2c-0.2-1-0.8-1.6-1.8-1.8c-0.9-0.2-1.8,0.2-2.3,1
		c-0.6,1-0.7,2.1-0.1,3.2c0.4,0.9,1.3,1.3,2.3,1.2c1-0.1,1.7-0.7,1.9-1.7c-0.5-0.1-0.8-0.1-1,0.4c-0.3,0.6-0.9,0.6-1.5,0.5
		c-0.5-0.1-0.8-0.4-1-0.9c-0.1-0.2-0.1-0.3-0.1-0.5C44,91.4,44.1,91.4,44.4,91.4z M45.5,89.1c0.9,0,1.4,0.5,1.5,1.5
		c-0.9,0-1.8,0-2.8,0C44.2,89.8,44.7,89.1,45.5,89.1z"/>
	<path class="st4" d="M120.1,91.4c1,0,1.9,0,2.9,0c0.2,0,0.3-0.1,0.3-0.3c0-0.3,0-0.7-0.1-1c-0.2-0.7-0.6-1.2-1.3-1.5
		c-1.2-0.5-2.5,0-3.1,1.3c-0.3,0.7-0.3,1.5-0.1,2.3c0.4,1.5,2,2.2,3.4,1.4c0.5-0.3,0.9-0.8,1-1.4c-0.5-0.1-0.8-0.1-1.1,0.4
		c-0.3,0.6-0.9,0.6-1.5,0.6c-0.5-0.1-0.9-0.4-1-0.9c-0.1-0.2-0.2-0.5-0.1-0.8C119.8,91.3,119.9,91.4,120.1,91.4z M121,89.1
		c0.9,0,1.4,0.5,1.4,1.5c-0.9,0-1.8,0-2.8,0C119.6,89.7,120.2,89.1,121,89.1z"/>
</g>
</svg>
