<?xml version="1.0" encoding="UTF-8"?>
<svg id="Layer_1" data-name="Layer 1" xmlns="http://www.w3.org/2000/svg" viewBox="0 0 94.92 73.13">
  <defs>
    <style>
      .cls-1 {
        letter-spacing: -.02em;
      }

      .cls-1, .cls-2, .cls-3, .cls-4, .cls-5, .cls-6 {
        fill: #a7a9ac;
      }

      .cls-7 {
        font-family: Oswald-Medium, Oswald;
        font-size: 10px;
        font-variation-settings: 'wght' 500;
        font-weight: 500;
      }

      .cls-8 {
        fill: #fff;
        stroke: #fff;
        stroke-width: .5px;
      }

      .cls-8, .cls-9 {
        stroke-miterlimit: 10;
      }

      .cls-3, .cls-10, .cls-11, .cls-12 {
        letter-spacing: .01em;
      }

      .cls-10 {
        fill: #ee3625;
      }

      .cls-11 {
        fill: #58595b;
      }

      .cls-12 {
        fill: #231f20;
      }

      .cls-4 {
        letter-spacing: .02em;
      }

      .cls-9 {
        fill: none;
        stroke: #ee3324;
        stroke-width: 4px;
      }

      .cls-5 {
        letter-spacing: 0em;
      }

      .cls-6 {
        letter-spacing: .01em;
      }
    </style>
  </defs>
  <path class="cls-2" d="m61.9,0c2.83.2,6.65-.2,9.28,1.01,4.42,1.77,7.3,6.19,7.36,10.84.03.75-.12,4.69-.13,5.52-.13,4.35-.38,13.11-.51,17.46.02,2.42-.46,6.24.13,8.55.64,2.7,2.5,5.12,5.02,6.43,2.53,1.44,5.59,1.02,8.47,1.2l-4.36.13c-4.56.17-8.82-3.1-10.1-7.48-.8-2.53-.5-6.22-.68-8.83-.13-4.35-.38-13.1-.51-17.46-.03-.74-.11-4.72-.18-5.38-.2-3.37-2.59-6.63-5.76-7.64-1.19-.43-2.38-.45-3.65-.39,0,0-4.36.13-4.36.13V0h0Z"/>
  <path class="cls-9" d="m30.15,49.11h5.98c5.52,0,10-4.48,10-10V12.04c0-5.52,4.48-10,10-10h5.77"/>
  <path class="cls-2" d="m30.15,51.15c-2.85-.21-6.67.21-9.35-1.07-4.02-1.68-6.73-5.58-7.14-9.79-.18-1.64.08-5.11.08-6.77.13-4.38.38-13.19.51-17.56.02-1.42.21-5.15.11-6.52-.29-3.49-2.49-6.79-5.78-8.22C6.29.05,2.52.45,0,.26c0,0,4.39-.13,4.39-.13,4.59-.4,9.03,2.57,10.55,6.95.98,2.46.68,6.27.84,8.88,0,0,.25,8.78.25,8.78l.25,8.78c.16,2.32-.15,6.08.77,8.21,1.11,2.92,3.74,5.11,6.79,5.43,1.23.16,4.98-.09,6.3-.09,0,0,0,4.07,0,4.07h0Z"/>
  <line class="cls-8" x1="61.9" x2="61.9" y2="4.09"/>
  <line class="cls-8" x1="30.15" y1="47.06" x2="30.15" y2="51.14"/>
  <text class="cls-7" transform="translate(0 66.87) scale(1 .87)"><tspan class="cls-12" x="0" y="0">U</tspan><tspan class="cls-3" x="5.81" y="0">R</tspan><tspan class="cls-6" x="11.57" y="0">B</tspan><tspan class="cls-3" x="17.28" y="0">AN </tspan><tspan class="cls-10" x="30.83" y="0">S</tspan><tspan class="cls-4" x="35.92" y="0">TR</tspan><tspan class="cls-1" x="46.13" y="0">A</tspan><tspan class="cls-3" x="51.12" y="0">TE</tspan><tspan class="cls-5" x="60" y="0">G</tspan><tspan class="cls-3" x="65.63" y="0">Y</tspan><tspan class="cls-11" x="70.65" y="0"> </tspan><tspan class="cls-12" x="73.23" y="0">U</tspan><tspan class="cls-3" x="79.04" y="0">NIT</tspan></text>
</svg>