<?xml version="1.0" encoding="utf-8"?>
<!-- Generator: Adobe Illustrator 26.5.2, SVG Export Plug-In . SVG Version: 6.00 Build 0)  -->
<svg version="1.1" id="Layer_1" xmlns="http://www.w3.org/2000/svg" xmlns:xlink="http://www.w3.org/1999/xlink" x="0px" y="0px"
	 viewBox="0 0 221.5 215.2" style="enable-background:new 0 0 221.5 215.2;" xml:space="preserve">
<style type="text/css">
	.st0{fill:#F3BF5F;}
	
		.st1{fill:none;stroke:#144665;stroke-width:7;stroke-linecap:round;stroke-miterlimit:10;stroke-dasharray:12.345,20.575,5.1437,14.4025;}
	.st2{fill:#144665;stroke:#144665;stroke-width:3;stroke-miterlimit:10;}
	
		.st3{fill:none;stroke:#FFFFFF;stroke-width:7;stroke-linecap:round;stroke-miterlimit:10;stroke-dasharray:12.345,20.575,5.1437,14.4025;}
</style>
<g>
	<circle class="st0" cx="110.7" cy="107.6" r="105.3"/>
</g>
<g>
	<circle class="st3" cx="110.7" cy="107.6" r="91.8"/>
</g>
<path class="st2" d="M149.8,51.5c0.1,0.1,0.2,0.2,0.4,0.2c1.8,0.8,2.6,2.4,2.2,4.1s-1.8,2.8-3.7,2.9c-1.8,0-3.6,0-5.5,0
	c-8.4,0-16.9,0-25.3,0c-0.4,0-0.9,0-1.7,0c8.4,6.6,13,14.9,14.4,25.2c0.5,0,0.9,0,1.4,0c5.6,0,11.2,0,16.9,0c1.7,0,3.1,1,3.5,2.6
	c0.4,1.5-0.2,3.2-1.6,4c-0.8,0.4-1.7,0.6-2.6,0.6c-5.5,0.1-11,0.1-16.5,0c-1,0-1.2,0.3-1.3,1.2c-1.8,14.8-13.3,27.6-28,30.7
	c-2.8,0.6-5.7,0.8-8.5,0.9c-3.9,0.2-7.9,0-12.3,0c0.7,0.7,1.2,1.1,1.7,1.6c14.6,13.8,29.2,27.6,43.8,41.4c0.8,0.7,1.5,1.4,2.3,2.2
	c1.7,1.6,1.9,3.9,0.4,5.4c-1.5,1.6-3.7,1.5-5.4-0.1c-12.1-11.4-24.2-22.9-36.3-34.3c-5.8-5.5-11.7-11-17.4-16.5
	c-0.7-0.7-1.4-1.8-1.6-2.7c-0.4-2.2,1.4-4.1,3.9-4.1c7.1,0,14.2,0,21.3,0c6.2,0,12-1.8,17-5.4c6.7-4.8,10.6-11.4,11.9-19.5
	c0-0.2,0-0.3,0-0.6c-0.5,0-1.1,0-1.6,0c-16,0-32,0-48,0c-0.6,0-1.2,0-1.8-0.1c-1.7-0.3-2.9-1.9-2.8-3.7c0.1-1.8,1.5-3.2,3.2-3.4
	c0.5,0,1,0,1.4,0c16,0,32,0,48,0c0.5,0,1,0,1.8,0c-0.6-2.2-1-4.2-1.7-6.1c-4-11.2-14.8-18.9-26.7-19.1c-7.3-0.1-14.7,0-22.1,0
	c-2.6,0-4.3-1.8-4-4.1c0.2-1.6,1.3-2.5,2.7-3.2C97.7,51.5,123.8,51.5,149.8,51.5z"/>
</svg>
