<?xml version="1.0" encoding="utf-8"?>
<!-- Generator: Adobe Illustrator 26.5.2, SVG Export Plug-In . SVG Version: 6.00 Build 0)  -->
<svg version="1.1" id="Layer_1" xmlns="http://www.w3.org/2000/svg" xmlns:xlink="http://www.w3.org/1999/xlink" x="0px" y="0px"
	 viewBox="0 0 221.48 215.23" style="enable-background:new 0 0 221.48 215.23;" xml:space="preserve">
<style type="text/css">
	.st0{fill:#144665;}
	.st1{fill:#FFFFFF;}
	.st2{fill:none;stroke:#010202;stroke-width:0.25;stroke-miterlimit:10;}
	.st3{fill:#3A3A3A;}
	.st4{fill:#FFFFFF;stroke:#3A3A3A;stroke-width:5;stroke-miterlimit:10;}
	.st5{fill:none;stroke:#3A3A3A;stroke-width:5;stroke-linecap:round;stroke-miterlimit:10;}
	
		.st6{fill:none;stroke:#144665;stroke-width:7;stroke-linecap:round;stroke-miterlimit:10;stroke-dasharray:12.345,20.575,5.1437,14.4025;}
	.st7{fill:#144665;stroke:#144665;stroke-width:3;stroke-miterlimit:10;}
</style>
<g>
	<circle class="st6" cx="110.74" cy="107.61" r="91.85"/>
</g>
<path class="st7" d="M149.78,51.55c0.13,0.08,0.25,0.18,0.39,0.25c1.75,0.84,2.61,2.42,2.24,4.11c-0.37,1.69-1.82,2.83-3.73,2.86
	c-1.82,0.03-3.64,0.01-5.46,0.01c-8.45,0-16.89,0-25.34,0c-0.44,0-0.87,0-1.66,0c8.37,6.56,13.04,14.92,14.38,25.23
	c0.51,0,0.94,0,1.38,0c5.62,0,11.24-0.01,16.85,0.01c1.74,0.01,3.05,1.04,3.51,2.63c0.43,1.48-0.19,3.25-1.59,3.96
	c-0.75,0.39-1.69,0.56-2.55,0.57c-5.5,0.05-10.99,0.05-16.49,0c-0.96-0.01-1.23,0.33-1.34,1.22c-1.79,14.85-13.32,27.56-27.96,30.66
	c-2.79,0.59-5.67,0.82-8.53,0.93c-3.95,0.15-7.91,0.04-12.3,0.04c0.73,0.67,1.21,1.11,1.68,1.56c14.59,13.8,29.19,27.6,43.78,41.39
	c0.76,0.72,1.53,1.44,2.28,2.18c1.68,1.64,1.85,3.87,0.42,5.4c-1.46,1.55-3.65,1.51-5.38-0.13c-12.1-11.44-24.19-22.88-36.29-34.32
	c-5.81-5.5-11.65-10.97-17.41-16.52c-0.74-0.71-1.4-1.75-1.59-2.73c-0.42-2.22,1.42-4.05,3.87-4.05c7.11-0.02,14.23-0.01,21.34-0.01
	c6.25,0,11.96-1.78,17.01-5.44c6.67-4.83,10.63-11.37,11.9-19.51c0.02-0.15,0-0.31,0-0.63c-0.54,0-1.05,0-1.56,0
	c-16,0-32.01,0-48.01,0c-0.6,0-1.22,0-1.81-0.11c-1.74-0.34-2.92-1.91-2.84-3.69c0.08-1.75,1.47-3.2,3.23-3.36
	c0.48-0.04,0.97-0.03,1.45-0.03c16,0,32.01,0,48.01,0c0.48,0,0.96,0,1.77,0c-0.58-2.16-0.97-4.2-1.67-6.14
	c-4.02-11.2-14.8-18.91-26.71-19.06c-7.35-0.1-14.71-0.02-22.07-0.03c-2.58-0.01-4.28-1.75-4.01-4.07c0.19-1.64,1.32-2.49,2.67-3.15
	C97.72,51.55,123.75,51.55,149.78,51.55z"/>
</svg>
