<?xml version="1.0" encoding="utf-8"?>
<!-- Generator: Adobe Illustrator 26.5.2, SVG Export Plug-In . SVG Version: 6.00 Build 0)  -->
<svg version="1.1" id="Layer_1" xmlns="http://www.w3.org/2000/svg" xmlns:xlink="http://www.w3.org/1999/xlink" x="0px" y="0px"
	 viewBox="0 0 150 100" style="enable-background:new 0 0 150 100;" xml:space="preserve">
<style type="text/css">
	.st0{fill:#023048;}
	.st1{fill:#FBBE4B;}
	.st2{fill:#EBB34D;}
	.st3{fill:#998C5E;}
	.st4{fill:#9DC3BB;}
	.st5{fill:#224562;}
	.st6{font-family:'Gilroy-Bold';}
	.st7{font-size:12px;}
</style>
<g>
	<path class="st0" d="M48.3,75.6c-0.3-0.5-0.5-1.1-0.7-1.6c-6.3-15.1-12.7-30.2-19-45.3c-3.7-8.8-7.4-17.6-11.1-26.5
		c-0.1-0.2-0.2-0.4-0.2-0.6c0.2-0.1,0.4-0.1,0.6-0.1c7,0,14,0,21,0c0.7,0,0.6-0.1,0.9,0.6C44,13,48.2,23.7,52.5,34.5
		c1.9,4.8,3.8,9.6,5.7,14.4c0.1,0.2,0,0.4,0.3,0.4c0.2,0.3,0,0.5-0.1,0.8c-1.5,3.8-3,7.6-4.5,11.5c-1.7,4.5-3.5,8.9-5.2,13.4
		C48.7,75.1,48.6,75.5,48.3,75.6z"/>
	<path class="st0" d="M59.7,51.9c0.5,1,1,2.1,1.7,3.1c3.5,5.2,8.4,8.5,14.6,9.4c7.8,1.1,14.4-1.5,19.5-7.4c0.2-0.3,0.4-0.5,0.9-0.5
		c7.2,0,14.4,0,21.7,0c0.1,0,0.2,0,0.4,0c0.1,0.2,0,0.3,0,0.4c-2.2,6.4-5.8,11.9-10.6,16.5c-5.8,5.5-12.7,9.1-20.6,10.6
		c-2.6,0.5-5.3,0.8-7.9,0.8c-6.8,0-13.2-1.6-19.3-4.7c-3.1-1.6-5.9-3.6-8.5-5.9c-0.1-0.1-0.3-0.2-0.4-0.3c-0.1-0.3,0-0.5,0.1-0.7
		c2.2-5.7,4.4-11.3,6.6-16.9c0.5-1.3,1-2.5,1.5-3.8C59.4,52.2,59.4,51.9,59.7,51.9z"/>
	<path class="st0" d="M113.4,19.7c0,0.2,0.2,0.4,0.3,0.5c1.2,1.8,2.3,3.8,3.2,5.8c0.1,0.2,0.2,0.4,0.2,0.6c-0.2,0.1-0.4,0.1-0.5,0.1
		c-7.9,0-15.8,0-23.7,0c-0.4,0-0.7-0.1-0.9-0.3c-2.9-2.2-6.2-3.6-9.9-4.1c-3.8-0.5-7.6,0-11.1,1.5c-0.1,0-0.2,0.1-0.3,0.1
		c-0.2-0.3,0-0.5,0.1-0.8c1.1-3,2.3-6,3.5-8.9c1.5-3.9,3-7.7,4.5-11.6c0.4-0.9,0.4-0.9,1.3-0.9c3.8,0.1,7.5,0.7,11.1,1.8
		c5.7,1.7,10.9,4.6,15.4,8.5c2.5,2.1,4.6,4.6,6.5,7.2C113.3,19.2,113.4,19.4,113.4,19.7z"/>
	<path class="st1" d="M113.4,19.7c-0.9-1.1-1.7-2.3-2.6-3.3c-6.4-7.4-14.4-12-24-13.8c-2.3-0.4-4.7-0.7-7.1-0.7
		c-0.6,0-0.5-0.1-0.8,0.5c-2.7,7-5.5,14-8.2,21.1c-0.1,0.2-0.2,0.3-0.1,0.5l0,0l-0.1,0.1c-0.5,1-0.8,2-1.2,3
		c-1.3,3.3-2.6,6.6-3.9,9.9c-0.1,0.2-0.2,0.4-0.2,0.6c-0.5,1.5-1,3-1.7,4.5c-0.4,0.8-0.7,1.6-1,2.4c-0.9,2.3-1.8,4.6-2.7,6.9
		c-0.1,0.2-0.2,0.4-0.1,0.6c-0.3,0.4-0.4,0.8-0.5,1.2C56.5,60,53.8,67,51.1,73.9c-0.5,0.9-0.7,1.9-1.1,2.8c-0.2,0.4-0.4,0.9-0.6,1.5
		c-0.4-0.9-0.8-1.7-1.1-2.6c0.8-2,1.6-4,2.4-6c2.5-6.5,5.1-13,7.6-19.6c0.1-0.2,0.2-0.4,0.2-0.7c0-0.1,0-0.1,0.1-0.2
		c0.1,0,0.1-0.2,0.2-0.3c0.5-1.1,0.9-2.2,1.3-3.2c0.4-1,0.8-2,1.2-3c0.5-1.4,1-2.8,1.6-4.1c1.4-3.3,2.6-6.6,3.9-9.9
		c1.2-3.1,2.4-6.2,3.6-9.3c1.6-4.1,3.2-8.2,4.8-12.3c0.6-1.7,1.3-3.3,1.9-5c0.2-0.6,0.3-0.6,0.9-0.6c0.7,0,1.5,0,2.2,0
		c17.3,0,34.6,0,51.9,0c0.2,0,0.5,0,0.7,0c0,0.2-0.1,0.3-0.1,0.4c-1,2.2-2.1,4.3-3.1,6.5c-1.7,3.5-3.3,7-4.9,10.4
		c-0.5,1-0.5,1-1.6,1c-3,0-6,0-9,0C113.8,19.7,113.6,19.7,113.4,19.7z"/>
	<path class="st1" d="M115.3,38.1c0,0.2-0.1,0.3-0.2,0.4c-0.2,0-0.2,0.2-0.1,0.3c-0.1,0.3-0.2,0.5-0.4,0.7c-0.4,0-0.3,0.3-0.2,0.5
		c0,0.1,0,0.2-0.1,0.3c-0.2,0.1-0.3,0.2-0.4,0.4c-0.7,1.5-0.9,1.3-2.5,1.2c-0.6,0-1.1-0.1-1.7-0.1c-4.9-0.1-9.8,0.3-14.7,0.2
		c-0.2,0-0.4,0-0.5,0.1c-8.5,0-16.9,0-25.4,0c-0.2,0-0.4,0-0.6-0.1c0.2-0.2,0.4-0.1,0.6-0.1c5.2,0,10.4,0,15.6,0c2.9,0,5.7,0,8.6,0
		c-1.3,0-2.7,0-4,0c-6.8,0-13.5,0-20.3,0c-1.4,0-2.8,0-4.2,0.1c-0.3,0-0.7,0-0.8-0.4c-0.1-0.3,0-0.5,0.1-0.7
		c0.3-0.2,0.6-0.4,0.3-0.7c0-0.2,0.1-0.4,0.2-0.6c0.4-0.2,0.4-0.6,0.5-0.9c0-0.1,0.1-0.1,0.2-0.1c0.4-0.5,1-0.6,1.6-0.6
		c15.7,0,31.5,0,47.2,0C114.5,37.8,115,37.7,115.3,38.1z"/>
	<path class="st1" d="M115.3,38.1c-0.6-0.2-1.1-0.1-1.7-0.1c-15.7,0-31.4,0-47.1,0c-0.4,0-0.8-0.1-1.1,0.4c-0.1,0.1-0.3,0.2-0.5,0.2
		c-0.1-0.4,0.1-0.8,0.4-1.1c0.2,0,0.5,0,0.7,0c16.2,0,32.5,0,48.7,0c0.2,0,0.5,0,0.7,0C115.6,37.8,115.4,38,115.3,38.1z"/>
	<path class="st1" d="M94.4,42c0-0.1,0.1-0.2,0.3-0.2c0.2,0,0.3,0,0.5,0c1.9,0,3.8,0,5.7,0c0.8,0,1.7-0.1,2.5-0.2c0.2,0,0.3,0,0.5,0
		c2.2,0,4.5,0,6.7,0c0.3,0,0.6,0,0.9,0.2c0.4,0.2,0.9,0.1,1.4,0.1c0.1,0,0.2-0.1,0.2-0.1c0.1-0.4,0.7-0.5,0.7-1
		c0-0.3,0.2-0.4,0.6-0.3c-0.2,0.5-0.4,1-0.7,1.5c-0.1,0.2-0.3,0.3-0.5,0.3c-0.7,0-1.4,0-2,0c-5.3,0-10.6,0-15.9,0
		C94.9,42.1,94.7,42,94.4,42z"/>
	<path class="st1" d="M63.9,41.3c0.3,0.5,0.8,0.5,1.3,0.5c0.8,0,1.5,0,2.3,0c5.6-0.3,11.1-0.1,16.7-0.1c1.5,0,3.1,0,4.6,0
		s3.1,0,4.6,0c0.2,0,0.5-0.1,0.7,0.2C93.9,42,93.7,42,93.5,42c-2.4,0-4.8,0-7.3,0c-5.7,0-11.4,0-17,0c-0.3,0-0.5,0-0.8,0
		c-1.6,0-3.2,0-4.8,0C63.5,41.7,63.7,41.5,63.9,41.3z"/>
	<path class="st2" d="M63.9,41.3c-0.1,0.2-0.2,0.4-0.2,0.6h-0.1c0-0.1,0-0.2,0-0.3c0.5-1.3,1-2.6,1.5-4c0-0.1,0.1-0.2,0.2-0.2h0.1
		c-0.2,0.3-0.4,0.7-0.4,1.1l0,0c0,0.3-0.1,0.6-0.4,0.9c-0.2,0.2-0.2,0.4-0.2,0.6c0,0.3,0,0.5-0.2,0.7C64,41,63.9,41.1,63.9,41.3z"/>
	<path class="st1" d="M114.4,40.1c-0.3-0.2-0.3-0.4-0.1-0.6c0.2-0.2,0.3-0.1,0.3,0.1C114.6,39.8,114.5,40,114.4,40.1z"/>
	<path class="st1" d="M115,38.9c-0.2,0-0.3-0.1-0.2-0.3c0.1-0.1,0.2-0.3,0.4-0.1C115.1,38.6,115.1,38.8,115,38.9z"/>
	<path class="st3" d="M58.7,48.8c0,0.1,0,0.2-0.2,0.3C58.6,49,58.6,48.8,58.7,48.8z"/>
	<path class="st4" d="M70.5,23.9c0-0.1,0-0.1,0.1-0.1C70.7,23.9,70.6,23.9,70.5,23.9z"/>
	<path class="st1" d="M64.1,40.8c0-0.3,0.1-0.5,0.2-0.7c0.2,0.1,0.3,0.3,0.2,0.5C64.5,40.8,64.3,40.8,64.1,40.8z"/>
	<path class="st1" d="M64.6,39.5c0.1-0.3,0.1-0.6,0.4-0.9C65.2,39.2,65.2,39.2,64.6,39.5z"/>
	<text transform="matrix(1 0 0 1 11.5024 96.2904)"><tspan x="0" y="0" class="st5 st6 st7">Value Capture </tspan><tspan x="84.7" y="0" class="st1 st6 st7">F</tspan><tspan x="90.9" y="0" class="st5 st6 st7">inance</tspan></text>
</g>
</svg>
