<?xml version="1.0" encoding="utf-8"?>
<!-- Generator: Adobe Illustrator 26.5.2, SVG Export Plug-In . SVG Version: 6.00 Build 0)  -->
<svg version="1.1" id="Layer_1" xmlns="http://www.w3.org/2000/svg" xmlns:xlink="http://www.w3.org/1999/xlink" x="0px" y="0px"
	 viewBox="0 0 150 100" style="enable-background:new 0 0 150 100;" xml:space="preserve">
<style type="text/css">
	.st0{fill:#023048;}
	.st1{fill:#FBBE4B;}
	.st2{fill:#EBB34D;}
	.st3{fill:#998C5E;}
	.st4{fill:#9DC3BB;}
</style>
<g>
	<path class="st0" d="M43.6,88.5c-0.4-0.6-0.6-1.3-0.9-1.9c-7.4-17.7-14.9-35.4-22.3-53.1c-4.3-10.3-8.7-20.7-13-31
		C7.3,2.2,7.2,2,7.2,1.7c0.2-0.1,0.5-0.1,0.7-0.1c8.2,0,16.4,0,24.6,0c0.8,0,0.7-0.1,1,0.7c5,12.6,10,25.2,15,37.9
		c2.2,5.6,4.5,11.3,6.7,16.9c0.1,0.2,0.1,0.4,0.3,0.5c0.2,0.3,0,0.6-0.1,0.9c-1.7,4.5-3.5,9-5.2,13.5c-2,5.2-4.1,10.4-6.1,15.7
		C44.1,87.9,44.1,88.3,43.6,88.5z"/>
	<path class="st0" d="M57.1,60.7c0.6,1.2,1.2,2.4,2,3.6c4.1,6.1,9.8,10,17.2,11c9.2,1.3,16.8-1.7,22.9-8.7c0.3-0.3,0.5-0.5,1-0.5
		c8.5,0,16.9,0,25.4,0c0.1,0,0.3,0,0.4,0c0.2,0.2,0,0.3,0,0.5c-2.6,7.5-6.8,14-12.5,19.4c-6.8,6.5-14.9,10.6-24.1,12.5
		c-3.1,0.6-6.2,0.9-9.3,0.9c-8,0-15.5-1.8-22.6-5.5c-3.6-1.9-7-4.2-10-6.9c-0.2-0.1-0.3-0.3-0.5-0.4c-0.2-0.3,0-0.6,0.1-0.8
		c2.6-6.6,5.1-13.3,7.7-19.9c0.6-1.5,1.1-3,1.7-4.4C56.6,61.1,56.7,60.7,57.1,60.7z"/>
	<path class="st0" d="M120,22.9c0,0.2,0.2,0.4,0.4,0.6c1.4,2.2,2.7,4.4,3.8,6.8c0.1,0.2,0.3,0.5,0.3,0.7c-0.2,0.1-0.4,0.1-0.6,0.1
		c-9.3,0-18.5,0-27.8,0c-0.4,0-0.8-0.1-1.1-0.4c-3.4-2.6-7.3-4.2-11.6-4.8c-4.5-0.6-8.9-0.1-13.1,1.7c-0.1,0.1-0.3,0.1-0.4,0.1
		c-0.2-0.3,0-0.6,0.1-0.9c1.3-3.5,2.7-7,4.1-10.5c1.8-4.5,3.5-9.1,5.3-13.6c0.4-1.1,0.5-1.1,1.6-1.1c4.4,0.2,8.8,0.8,13.1,2.1
		c6.7,2,12.7,5.4,18.1,10c2.9,2.5,5.4,5.3,7.7,8.4C119.9,22.4,120.1,22.6,120,22.9z"/>
	<path class="st1" d="M120,22.9c-1-1.3-2-2.7-3.1-3.9c-7.5-8.6-16.9-14.1-28.1-16.2c-2.7-0.5-5.5-0.8-8.3-0.8
		c-0.6,0-0.6-0.1-0.9,0.6C76.5,10.7,73.2,19,70,27.2c-0.1,0.2-0.2,0.3-0.1,0.5c0,0,0,0,0,0c0,0-0.1,0.1-0.1,0.1
		c-0.6,1.1-1,2.3-1.4,3.5c-1.5,3.9-3,7.8-4.6,11.7c-0.1,0.2-0.2,0.4-0.2,0.7c-0.5,1.8-1.2,3.6-2,5.3c-0.5,0.9-0.8,1.8-1.2,2.8
		c-1.1,2.7-2.1,5.4-3.2,8.1c-0.1,0.2-0.2,0.5-0.2,0.8c-0.3,0.4-0.4,1-0.6,1.4c-3.2,8.1-6.3,16.2-9.5,24.4c-0.5,1-0.9,2.2-1.3,3.3
		c-0.2,0.5-0.4,1-0.7,1.7c-0.5-1.1-0.9-2-1.3-3c0.9-2.4,1.9-4.7,2.8-7.1c3-7.6,6-15.3,8.9-23c0.1-0.3,0.2-0.5,0.2-0.8
		c0-0.1,0-0.2,0.1-0.2c0.2-0.1,0.1-0.2,0.2-0.3c0.6-1.2,1-2.5,1.5-3.8c0.5-1.2,1-2.4,1.4-3.6c0.5-1.6,1.2-3.3,1.8-4.8
		c1.6-3.9,3.1-7.8,4.6-11.7c1.4-3.6,2.8-7.3,4.2-11c1.9-4.8,3.8-9.6,5.6-14.4c0.8-1.9,1.5-3.9,2.3-5.8c0.3-0.7,0.3-0.7,1.1-0.7
		c0.9,0,1.7,0,2.6,0c20.3,0,40.6,0,60.9,0c0.3,0,0.6,0,0.8,0c0.1,0.2-0.1,0.4-0.1,0.5c-1.2,2.5-2.4,5.1-3.6,7.6
		c-1.9,4.1-3.9,8.2-5.8,12.3c-0.6,1.2-0.6,1.2-1.9,1.2c-3.5,0-7.1,0-10.6,0C120.5,22.9,120.3,22.9,120,22.9z"/>
	<path class="st1" d="M122.3,44.5c0,0.2-0.1,0.3-0.2,0.5c-0.3,0-0.2,0.2-0.2,0.4c-0.1,0.3-0.2,0.6-0.4,0.9c-0.5,0-0.3,0.3-0.3,0.6
		c0,0.1,0,0.2-0.1,0.3c-0.2,0.1-0.4,0.2-0.5,0.4c-0.8,1.7-1.1,1.5-2.9,1.4c-0.7-0.1-1.3-0.1-2-0.2c-5.8-0.1-11.5,0.4-17.3,0.2
		c-0.2,0-0.4,0-0.6,0.1c-9.9,0-19.9,0-29.8,0c-0.2,0-0.5,0-0.7-0.1c0.2-0.2,0.5-0.2,0.7-0.2c6.1,0,12.2,0,18.3,0c3.4,0,6.7,0,10.1,0
		c-1.6,0-3.1,0-4.7,0c-7.9,0-15.9,0-23.8,0c-1.7,0-3.3,0-5,0.1c-0.4,0-0.8,0-1-0.5c-0.2-0.3,0-0.5,0.1-0.8c0.4-0.2,0.7-0.4,0.4-0.9
		c0-0.3,0.2-0.5,0.3-0.8c0.5-0.2,0.5-0.7,0.6-1.1c0.1-0.1,0.1-0.1,0.2-0.2c0.5-0.5,1.2-0.7,1.9-0.7c18.5,0,36.9,0,55.4,0
		C121.3,44.2,121.9,44.1,122.3,44.5z"/>
	<path class="st1" d="M122.3,44.5c-0.7-0.2-1.3-0.1-2-0.1c-18.4,0-36.8,0-55.2,0c-0.5,0-1-0.1-1.3,0.5c-0.1,0.1-0.4,0.2-0.6,0.3
		c-0.1-0.5,0.1-0.9,0.4-1.3c0.3,0,0.6,0,0.9,0c19.1,0,38.1,0,57.2,0c0.3,0,0.6,0,0.9,0C122.6,44.1,122.5,44.3,122.3,44.5z"/>
	<path class="st1" d="M97.8,49.1c0-0.2,0.1-0.3,0.3-0.3c0.2,0,0.4,0,0.6,0c2.2,0,4.4,0,6.6,0c1,0,2-0.1,2.9-0.3c0.2,0,0.4,0,0.6,0
		c2.6,0,5.2,0,7.9,0c0.4,0,0.7,0.1,1,0.2c0.5,0.2,1.1,0.1,1.6,0.1c0.1,0,0.2-0.1,0.3-0.1c0.1-0.5,0.8-0.6,0.8-1.2
		c0-0.4,0.3-0.5,0.7-0.3c-0.2,0.6-0.5,1.1-0.8,1.7c-0.1,0.3-0.3,0.3-0.6,0.3c-0.8,0-1.6,0-2.4,0c-6.2,0-12.4,0-18.7,0
		C98.4,49.1,98.1,49.1,97.8,49.1z"/>
	<path class="st1" d="M62,48.3c0.4,0.6,0.9,0.6,1.5,0.6c0.9,0,1.8,0,2.7,0c6.5-0.3,13-0.1,19.6-0.1c1.8,0,3.6,0,5.5,0
		c1.8,0,3.6,0,5.4,0c0.3,0,0.6-0.1,0.9,0.2c-0.2,0.2-0.5,0.1-0.7,0.1c-2.8,0-5.7,0-8.5,0c-6.7,0-13.3,0-20,0c-0.3,0-0.6,0-0.9,0
		c-1.9,0-3.7,0-5.6,0C61.5,48.7,61.7,48.5,62,48.3z"/>
	<path class="st2" d="M62,48.3c-0.1,0.2-0.3,0.5-0.3,0.7c0,0-0.1,0-0.1,0c0-0.1,0-0.2,0-0.4c0.6-1.5,1.2-3.1,1.8-4.6
		c0-0.1,0.1-0.2,0.2-0.3c0,0,0.1,0,0.1,0c-0.2,0.4-0.4,0.8-0.4,1.3c0,0,0,0,0,0c-0.1,0.4-0.2,0.7-0.4,1c-0.2,0.2-0.2,0.5-0.3,0.7
		c0,0.3-0.1,0.6-0.3,0.9C62.1,47.9,62,48.1,62,48.3z"/>
	<path class="st1" d="M121.2,46.8c-0.4-0.2-0.3-0.5-0.1-0.7c0.2-0.2,0.4-0.1,0.4,0.2C121.4,46.5,121.4,46.7,121.2,46.8z"/>
	<path class="st1" d="M121.9,45.4c-0.2,0-0.3-0.1-0.3-0.3c0.1-0.2,0.2-0.3,0.4-0.1C122.1,45.1,122,45.3,121.9,45.4z"/>
	<path class="st3" d="M55.9,57.1c0,0.2,0,0.3-0.2,0.3C55.7,57.3,55.7,57.1,55.9,57.1z"/>
	<path class="st4" d="M69.8,27.9c0-0.1,0.1-0.1,0.1-0.1C69.9,27.9,69.8,27.9,69.8,27.9z"/>
	<path class="st1" d="M62.3,47.7c0-0.3,0.1-0.6,0.3-0.9c0.2,0.1,0.3,0.3,0.3,0.6C62.7,47.7,62.5,47.7,62.3,47.7z"/>
	<path class="st1" d="M62.8,46.1c0.1-0.4,0.1-0.7,0.4-1C63.5,45.8,63.5,45.8,62.8,46.1z"/>
</g>
</svg>
