<?xml version="1.0" encoding="utf-8"?>
<!-- Generator: Adobe Illustrator 26.5.2, SVG Export Plug-In . SVG Version: 6.00 Build 0)  -->
<svg version="1.1" id="Layer_1" xmlns="http://www.w3.org/2000/svg" xmlns:xlink="http://www.w3.org/1999/xlink" x="0px" y="0px"
	 viewBox="0 0 56.85 61.72" style="enable-background:new 0 0 56.85 61.72;" xml:space="preserve">
<style type="text/css">
	.st0{fill:none;stroke:#FFFFFF;stroke-width:1.5;stroke-miterlimit:10;}
</style>
<g>
	<path class="st0" d="M21.47,4.6c2.12,0,15.27,8.03,15.76,9.33c0.52,1.36,1.26,38.87,0,39.67c-2.36,1.5-30.59,1.5-31.85,0
		c-1.51-1.8-0.37-38.92,0-39.89C5.85,12.49,19.28,4.6,21.47,4.6z"/>
	<g>
		<polyline class="st0" points="13.69,29.98 13.69,39.31 28.23,39.4 27.95,30.18 		"/>
		<polyline class="st0" points="11.74,31.64 21.06,24.93 29.72,31.73 		"/>
		<polyline class="st0" points="18.72,39.36 18.72,33.17 23,33.17 23,39.41 		"/>
		<line class="st0" x1="11.2" y1="45.15" x2="24.35" y2="45.15"/>
		<line class="st0" x1="11.2" y1="48.35" x2="31.2" y2="48.35"/>
		<circle class="st0" cx="21.16" cy="13.31" r="2.72"/>
	</g>
	<g>
		<path class="st0" d="M23.19,57.62c0.7,0.36,4.66-0.96,10.08-3.12c-3.07,0.31-7.11,0.22-11.89,0.23
			C22.21,56.38,22.85,57.45,23.19,57.62z"/>
		<path class="st0" d="M37.11,8.69c-0.58-0.61-6.35-1.68-11.27-2.25c4.62,2.45,11.05,6.59,11.39,7.49
			c0.48,1.26,1.28,33.45,0.38,38.9c7.06-2.96,14.11-6.41,14.92-7.58C53.38,44.02,38.11,9.74,37.11,8.69z"/>
	</g>
</g>
</svg>
